<svg viewBox="0 0 1200 450" xmlns="http://www.w3.org/2000/svg" xmlns:xlink="http://www.w3.org/1999/xlink"><defs><path id="a" d="M0 0h1200v450H0V0z"/><path id="c" d="M0 0h1200v450H0V0z"/></defs><g fill="none" fill-rule="evenodd"><path d="M0 450h1200V340H0v110z" fill="#6898D1"/><path d="M0 340h1200V0H0v340z" fill="#DBEBF3"/><mask id="b" fill="#fff"><use xlink:href="#a"/></mask><path d="M0 340h1200v-60s.333-2.667-19-3.333c-19.333-.667-40 2-62 0s-52.667-5.334-72-5.334-88-4-107.333 0c-19.334 4-40.667-1.555-54-1.777-13.334-.223-64.667.222-85.334 0-20.666-.223-217.333-.065-217.333-.065s-11.333-8.155-22-8.155-32-.666-44 0c-12 .667-25.333-1.14-45.333-.177C451.667 262.12 425 261 425 261H0v79z" fill="#414453" mask="url(#b)"/><mask id="d" fill="#fff"><use xlink:href="#c"/></mask><path d="M1200 347H0v12h1200v-12z" fill="#2C350D" mask="url(#d)"/><path d="M395 111.558L427 101h17v212h-49V111.558z" fill="#2F7B92" mask="url(#d)"/><path d="M444 313h6V107h-6v206z" fill="#283378" mask="url(#d)"/><path d="M450 313h8V101h-8v212z" fill="#2F7B92" mask="url(#d)"/><path d="M431 91v1h-2v-2h-1v2h-2v1h2v8h1v-8h2v8h1V91h-1zm156 181v-63l2.5-2h2.5v-2h29v4h11v63h-45z" fill="#283378" mask="url(#d)"/><path d="M655 258v-11h-4v-6h-25v6h-8v11h-3v23h43v-23h-3z" fill="#2F7B92" mask="url(#d)"/><path d="M615 278h-45v-17h45v17zm-60-3h-25v-15h25v15z" fill="#146078" mask="url(#d)"/><path d="M493 260v-4h-31v4h-4v20h48v-20h-13zm410-109v-5l11-3h27v8h-38z" fill="#283378" mask="url(#d)"/><path d="M947 340h-33V146h33v194z" fill="#2F7B92" mask="url(#d)"/><path d="M897 151.25l17-5.25v194h-17V151.25z" fill="#146078" mask="url(#d)"/><path d="M925 134v-3h-2v-22.062l-1-.938v23h-2l-1 1v2h-4l-6 2.2v-11.95l-1-1.25v13.567l-8 2.933v8.5l14-5h30v-9h-19z" fill="#146078" mask="url(#d)"/><path d="M787 257v-3h-15v2h3v1h-21v35h37v-35h-4z" fill="#283378" mask="url(#d)"/><path d="M794 219v4h2v15h-9v48h53v-63h2v-4h-48z" fill="#2F7B92" mask="url(#d)"/><path d="M676 285h55v-70h-55v70z" fill="#283378" mask="url(#d)"/><path d="M756 292h-41v-61h41v61z" fill="#146078" mask="url(#d)"/><path d="M740 292h-27v-20h27v20z" fill="#2F7B92" mask="url(#d)"/><path d="M658 293h48v-32h-48v32z" fill="#146078" mask="url(#d)"/><path d="M707 330h-29v-42h29v42z" fill="#2F7B92" mask="url(#d)"/><path d="M800 282v-4h-20v4h-6v28h32v-28h-6z" fill="#146078" mask="url(#d)"/><path d="M900 340h-19v-36h19v36z" fill="#283378" mask="url(#d)"/><path d="M884 242v-3h-4v-5h-24v5h-2v3h-3v64h34v-64h-1z" fill="#146078" mask="url(#d)"/><path d="M875 271v-4h-4v-3h-55v3h-5v4h-5v77h75v-77h-6z" fill="#283378" mask="url(#d)"/><path d="M883 340h-24v-49h24v49zm28 0h-11v-32h11v32zm-83-18h-31v-31h31v31z" fill="#2F7B92" mask="url(#d)"/><path d="M204 216v-2h-19v2h-15v69h72v-69h-38zm142.34-4c-.6-3.81-3.21-8.313-12.028-8.313-8.818 0-11.427 4.503-12.027 8.313H307v70h56v-70h-16.66z" fill="#146078" mask="url(#d)"/><path d="M310 212.04v-1.207L309 207v-1.833L298 192h-8v-5h-1v-10h-2v-12h-1v12h-2v10h-1v5h-10.333L263 203v4h-4v52h52l.167-45-1.167-1.96z" fill="#283378" mask="url(#d)"/><path d="M259 233v-12l-5-7h-22v19h-4v52h34v-52h-3z" fill="#2F7B92" mask="url(#d)"/><path d="M379 280h-16v-56h16v56z" fill="#146078" mask="url(#d)"/><path d="M364 280h-15v-73h15v73z" fill="#283378" mask="url(#d)"/><path d="M303 295h-46v-39h46v39z" fill="#146078" mask="url(#d)"/><path d="M297 252v29h-23v36h62v-65h-39z" fill="#2F7B92" mask="url(#d)"/><path d="M358 317h-16v-61h16v61z" fill="#146078" mask="url(#d)"/><path d="M358 280h31v35h-31v-35zm701 60h54v-12h-54v12z" fill="#2F7B92" mask="url(#d)"/><path d="M1091 251v-5h-14v5h-6v-2h-5v28h34v-26h-9zm-57-12v-3h-26v3h-46v-3h-7v53h100v-50h-21z" fill="#283378" mask="url(#d)"/><path d="M1090 273v-7h-10v7h-5v-7h-27v11h-10v51h71v-55h-19z" fill="#146078" mask="url(#d)"/><path d="M995 242h-7v-6h7v6z" fill="#283378" mask="url(#d)"/><path d="M1200 300h-15v-40h15v40z" fill="#2F7B92" mask="url(#d)"/><path d="M1176 279h-8v-11h8v11zm-17 3h-12v-13h12v13zm-25 3h9v-17h-9v17zm-14 2h9v-22h-9v22z" fill="#146078" mask="url(#d)"/><path d="M1124 287h-11v-19h11v19z" fill="#2F7B92" mask="url(#d)"/><path d="M381 259v27h8v-27l-3.5-7-4.5 7z" fill="#283378" mask="url(#d)"/><path d="M395 313h-6v-58h6v58zm-8 4h-10v-18h10v18z" fill="#146078" mask="url(#d)"/><path d="M358 317h9v-18h-9v18zm-22-40h6v38h-6v-38zm-204-34v-9h-7v-4h-6v-4h-4v-1h-12v1h-3v4h-7v4h-6v7h-3v10h-3v6h46v4h7v-18h-2z" fill="#283378" mask="url(#d)"/><path d="M68 285H0v-33h68v33z" fill="#146078" mask="url(#d)"/><path d="M61 285h70v-29H61v29z" fill="#2F7B92" mask="url(#d)"/><path d="M604 300h54v-19h-54v19z" fill="#283378" mask="url(#d)"/><path d="M147 295h20v-30h-20v30zm495 3v-4h-22v4h-5v28h40v-28h-13z" fill="#2F7B92" mask="url(#d)"/><path d="M594 301h-43v-24h43v24z" fill="#283378" mask="url(#d)"/><path d="M565 297v4h-8v-6h-12v4h-10v-4h-13v4h-10v-5h-13v3h-13v-3h-17v19h105v-16h-9z" fill="#2F7B92" mask="url(#d)"/><path d="M515 313h-57v-33h57v33z" fill="#146078" mask="url(#d)"/><path d="M974 350s-41.333-4.667-62-9-36-3.333-40.667-5.667c-4.666-2.333-11.666-9.666-19-11.333C845 322.333 833 320.667 827 318s-14-10.333-22.667-8.667c-8.666 1.667-45.666-1.333-53.666-1.666-8-.334-19.334 2-24 3.333-4.667 1.333-9.334 1-15 1.667-5.667.666-7-3-17 3s-13.667 1.666-20.334 1.666c-6.666 0-8.666 4.667-8.666 4.667s-2.334-1.333-6.667-1c-4.333.333-7-1-12.667-1-5.666 0-7.666-1-14.666.333-7 1.334-6.334 7.3-9.667 8.484-3.333 1.183-4-6.484-9.667-6.484-5.666 0-10.666 3.334-10.666 3.334s-4.667-6.334-10-5.667c-5.334.667-5 4.333-5 4.333s2-1-6.667-1-8 3.667-8 3.667-7.333-14.667-20-14.667-20 .667-26 1c-6 .334-17-3.666-27.333-3.666-10.334 0-22.334 3-28 3-5.667 0-18.334-6.065-27.334-5.033-9 1.033-21.333-3.967-34-2.967-12.666 1-28.333 6.333-35.666 6.333-7.334 0-16.334 1.333-26.667 1.333-10.333 0-10.667-1.666-23.667-1.666-13 0-14-6.6-33-6.133-19 .466-41 .153-48.333-.024-7.333-.177-19.333-4.177-27.667-4.177-8.333 0-34.333 6-45 6.334-10.666.333-15.666-2.334-23.666-2.334s-8-1.666-21 1.334-20.334 1-32 1c-11.667 0-4.667 2.666-17.334 6-12.666 3.333-19.333 3.666-25.666 3-6.334-.667-13-.667-18.334-.667-5.333 0-6 0-11-1.667-5-1.666-10.333-9-20.333-9.333v43l974 3z" fill="#2C350D" mask="url(#d)"/><path d="M170 261h-36v-15h36v15z" fill="#2F7B92" mask="url(#d)"/><path d="M978 340h-52v-42h52v42zm-67-12h15v12h-15v-12zm119 12h29v-12h-29v12z" fill="#283378" mask="url(#d)"/><path d="M1011 340h-20v-42h20v42z" fill="#146078" mask="url(#d)"/><path d="M1018 316v9h-10v-9h-12v15h-8v-12h-10v21h55v-24h-15z" fill="#2F7B92" mask="url(#d)"/></g></svg>
