<?xml version="1.0" encoding="UTF-8" standalone="no"?>
<svg width="1200px" height="450px" viewBox="0 0 1200 450" version="1.1" xmlns="http://www.w3.org/2000/svg" xmlns:xlink="http://www.w3.org/1999/xlink" xmlns:sketch="http://www.bohemiancoding.com/sketch/ns">
    <!-- Generator: Sketch 3.5.2 (25235) - http://www.bohemiancoding.com/sketch -->
    <title>Illustration</title>
    <desc>Created with Sketch.</desc>
    <defs>
        <path id="path-1" d="M0,0 L1200,0 L1200,450 L0,450 L0,0 Z"></path>
        <path id="path-3" d="M0,0 L1200,0 L1200,450 L0,450 L0,0 Z"></path>
    </defs>
    <g id="Home" stroke="none" stroke-width="1" fill="none" fill-rule="evenodd" sketch:type="MSPage">
        <g id="WCBos-2016:-Home" sketch:type="MSArtboardGroup" transform="translate(0.000000, -80.000000)">
            <g id="Illustration" sketch:type="MSLayerGroup" transform="translate(0.000000, 80.000000)">
                <path d="M0,450 L1200,450 L1200,340 L0,340 L0,450 Z" id="Fill-1" fill="#6DBBE4" sketch:type="MSShapeGroup"></path>
                <path d="M0,340 L1200,340 L1200,0 L0,0 L0,340 Z" id="Fill-2" fill="#DBEBF3" sketch:type="MSShapeGroup"></path>
                <g id="Group-80">
                    <g id="Group-5">
                        <mask id="mask-2" sketch:name="Clip 4" fill="white">
                            <use xlink:href="#path-1"></use>
                        </mask>
                        <g id="Clip-4"></g>
                        <path d="M0,340 L880,340 L903.667,340 L1200,340 L1200,280 C1200,280 1200.333,277.333 1181,276.667 C1161.667,276 1141,278.667 1119,276.667 C1097,274.667 1066.333,271.333 1047,271.333 C1027.667,271.333 959,267.333 939.667,271.333 C920.333,275.333 899,269.778 885.667,269.556 C872.333,269.333 821,269.778 800.333,269.556 C779.667,269.333 583,269.491 583,269.491 C583,269.491 571.667,261.333 561,261.333 C550.333,261.333 529,260.667 517,261.333 C505,262 491.667,260.193 471.667,261.156 C451.667,262.119 425,261 425,261 L172,261 L0,261 L0,340 Z" id="Fill-3" fill="#414453" sketch:type="MSShapeGroup" mask="url(#mask-2)"></path>
                    </g>
                    <mask id="mask-4" sketch:name="Clip 7" fill="white">
                        <use xlink:href="#path-3"></use>
                    </mask>
                    <g id="Clip-7"></g>
                    <path d="M1200,347 L0,347 L0,359 L1200,359 L1200,347 Z" id="Fill-6" fill="#414453" sketch:type="MSShapeGroup" mask="url(#mask-4)"></path>
                    <path d="M395,111.558 L427,101 L444,101 L444,313 L395,313 L395,111.558 Z" id="Fill-8" fill="#2F7B92" sketch:type="MSShapeGroup" mask="url(#mask-4)"></path>
                    <path d="M444,313 L450,313 L450,107 L444,107 L444,313 Z" id="Fill-9" fill="#283378" sketch:type="MSShapeGroup" mask="url(#mask-4)"></path>
                    <path d="M450,313 L458,313 L458,101 L450,101 L450,313 Z" id="Fill-10" fill="#2F7B92" sketch:type="MSShapeGroup" mask="url(#mask-4)"></path>
                    <path d="M431,91 L431,92 L429,92 L429,90 L428,90 L428,92 L426,92 L426,93 L428,93 L428,101 L429,101 L429,93 L431,93 L431,101 L432,101 L432,91 L431,91 Z" id="Fill-11" fill="#283378" sketch:type="MSShapeGroup" mask="url(#mask-4)"></path>
                    <path d="M587,272 L587,209 L589.5,207 L592,207 L592,205 L621,205 L621,209 L632,209 L632,272 L587,272 Z" id="Fill-12" fill="#283378" sketch:type="MSShapeGroup" mask="url(#mask-4)"></path>
                    <path d="M655,258 L655,247 L651,247 L651,241 L626,241 L626,247 L618,247 L618,258 L615,258 L615,281 L658,281 L658,258 L655,258 Z" id="Fill-13" fill="#2F7B92" sketch:type="MSShapeGroup" mask="url(#mask-4)"></path>
                    <path d="M615,278 L570,278 L570,261 L615,261 L615,278 Z" id="Fill-14" fill="#146078" sketch:type="MSShapeGroup" mask="url(#mask-4)"></path>
                    <path d="M555,275 L530,275 L530,260 L555,260 L555,275 Z" id="Fill-15" fill="#146078" sketch:type="MSShapeGroup" mask="url(#mask-4)"></path>
                    <path d="M493,260 L493,256 L462,256 L462,260 L458,260 L458,280 L506,280 L506,260 L493,260 Z" id="Fill-16" fill="#283378" sketch:type="MSShapeGroup" mask="url(#mask-4)"></path>
                    <path d="M903,151 L903,146 L914,143 L941,143 L941,151 L903,151 Z" id="Fill-17" fill="#283378" sketch:type="MSShapeGroup" mask="url(#mask-4)"></path>
                    <path d="M947,340 L914,340 L914,146 L947,146 L947,340 Z" id="Fill-18" fill="#2F7B92" sketch:type="MSShapeGroup" mask="url(#mask-4)"></path>
                    <path d="M897,151.25 L914,146 L914,340 L897,340 L897,151.25 Z" id="Fill-19" fill="#146078" sketch:type="MSShapeGroup" mask="url(#mask-4)"></path>
                    <path d="M925,134 L925,131 L923,131 L923,108.938 L922,108 L922,131 L920,131 L919,132 L919,134 L915,134 L909,136.2 L909,124.25 L908,123 L908,136.567 L900,139.5 L900,148 L914,143 L944,143 L944,134 L925,134 Z" id="Fill-20" fill="#146078" sketch:type="MSShapeGroup" mask="url(#mask-4)"></path>
                    <path d="M787,257 L787,256 L787,254 L772,254 L772,256 L775,256 L775,257 L754,257 L754,292 L791,292 L791,257 L787,257 Z" id="Fill-21" fill="#283378" sketch:type="MSShapeGroup" mask="url(#mask-4)"></path>
                    <path d="M794,219 L794,223 L796,223 L796,238 L787,238 L787,286 L840,286 L840,238 L840,223 L842,223 L842,219 L794,219 Z" id="Fill-22" fill="#2F7B92" sketch:type="MSShapeGroup" mask="url(#mask-4)"></path>
                    <path d="M676,285 L731,285 L731,215 L676,215 L676,285 Z" id="Fill-23" fill="#283378" sketch:type="MSShapeGroup" mask="url(#mask-4)"></path>
                    <path d="M756,292 L715,292 L715,231 L756,231 L756,292 Z" id="Fill-24" fill="#146078" sketch:type="MSShapeGroup" mask="url(#mask-4)"></path>
                    <path d="M740,292 L713,292 L713,272 L740,272 L740,292 Z" id="Fill-25" fill="#2F7B92" sketch:type="MSShapeGroup" mask="url(#mask-4)"></path>
                    <path d="M658,293 L706,293 L706,261 L658,261 L658,293 Z" id="Fill-26" fill="#146078" sketch:type="MSShapeGroup" mask="url(#mask-4)"></path>
                    <path d="M707,330 L678,330 L678,288 L707,288 L707,330 Z" id="Fill-27" fill="#2F7B92" sketch:type="MSShapeGroup" mask="url(#mask-4)"></path>
                    <path d="M800,282 L800,278 L780,278 L780,282 L774,282 L774,310 L806,310 L806,282 L800,282 Z" id="Fill-28" fill="#146078" sketch:type="MSShapeGroup" mask="url(#mask-4)"></path>
                    <path d="M900,340 L881,340 L881,304 L900,304 L900,340 Z" id="Fill-29" fill="#283378" sketch:type="MSShapeGroup" mask="url(#mask-4)"></path>
                    <path d="M884,242 L884,239 L880,239 L880,234 L856,234 L856,239 L854,239 L854,242 L851,242 L851,306 L885,306 L885,242 L884,242 Z" id="Fill-30" fill="#146078" sketch:type="MSShapeGroup" mask="url(#mask-4)"></path>
                    <path d="M875,271 L875,267 L871,267 L871,264 L816,264 L816,267 L811,267 L811,271 L806,271 L806,348 L881,348 L881,271 L875,271 Z" id="Fill-31" fill="#283378" sketch:type="MSShapeGroup" mask="url(#mask-4)"></path>
                    <path d="M883,340 L859,340 L859,291 L883,291 L883,340 Z" id="Fill-32" fill="#2F7B92" sketch:type="MSShapeGroup" mask="url(#mask-4)"></path>
                    <path d="M911,340 L900,340 L900,308 L911,308 L911,340 Z" id="Fill-33" fill="#2F7B92" sketch:type="MSShapeGroup" mask="url(#mask-4)"></path>
                    <path d="M828,322 L797,322 L797,291 L828,291 L828,322 Z" id="Fill-34" fill="#2F7B92" sketch:type="MSShapeGroup" mask="url(#mask-4)"></path>
                    <path d="M204,227 L204,224 L185,224 L185,227 L170,227 L170,319 L242,319 L242,227 L204,227 Z" id="Fill-35" fill="#146078" sketch:type="MSShapeGroup" mask="url(#mask-4)"></path>
                    <path d="M346.3394,212 C345.7394,208.19 343.1304,203.687 334.3124,203.687 C325.4944,203.687 322.8854,208.19 322.2854,212 L307.0004,212 L307.0004,282 L363.0004,282 L363.0004,212 L346.3394,212 Z" id="Fill-36" fill="#146078" sketch:type="MSShapeGroup" mask="url(#mask-4)"></path>
                    <path d="M310,212.04 L310,210.833 L309,207 L309,205.167 L298,192 L290,192 L290,187 L289,187 L289,177 L287,177 L287,165 L286,165 L286,177 L284,177 L284,187 L283,187 L283,192 L272.667,192 L263,203 L263,207 L259,207 L259,259 L307,259 L311,259 L311.167,214 L310,212.04 Z" id="Fill-37" fill="#283378" sketch:type="MSShapeGroup" mask="url(#mask-4)"></path>
                    <path d="M259,240 L259,223.761 L254,214 L232,214 L232,240 L228,240 L228,313 L262,313 L262,240 L259,240 Z" id="Fill-38" fill="#2F7B92" sketch:type="MSShapeGroup" mask="url(#mask-4)"></path>
                    <path d="M379,280 L363,280 L363,224 L379,224 L379,280 Z" id="Fill-39" fill="#146078" sketch:type="MSShapeGroup" mask="url(#mask-4)"></path>
                    <path d="M364,280 L349,280 L349,207 L364,207 L364,280 Z" id="Fill-40" fill="#283378" sketch:type="MSShapeGroup" mask="url(#mask-4)"></path>
                    <path d="M303,319 L257,319 L257,256 L303,256 L303,319 Z" id="Fill-41" fill="#146078" sketch:type="MSShapeGroup" mask="url(#mask-4)"></path>
                    <path d="M297,252 L297,281 L274,281 L274,317 L297,317 L336,317 L336,252 L297,252 Z" id="Fill-42" fill="#2F7B92" sketch:type="MSShapeGroup" mask="url(#mask-4)"></path>
                    <path d="M358,317 L342,317 L342,256 L358,256 L358,317 Z" id="Fill-43" fill="#146078" sketch:type="MSShapeGroup" mask="url(#mask-4)"></path>
                    <path d="M358,280 L389,280 L389,315 L358,315 L358,280 Z" id="Fill-44" fill="#2F7B92" sketch:type="MSShapeGroup" mask="url(#mask-4)"></path>
                    <path d="M1059,340 L1113,340 L1113,328 L1059,328 L1059,340 Z" id="Fill-45" fill="#2F7B92" sketch:type="MSShapeGroup" mask="url(#mask-4)"></path>
                    <path d="M1091,251 L1091,246 L1077,246 L1077,251 L1071,251 L1071,249 L1066,249 L1066,277 L1071,277 L1100,277 L1100,251 L1091,251 Z" id="Fill-46" fill="#283378" sketch:type="MSShapeGroup" mask="url(#mask-4)"></path>
                    <path d="M1034,239 L1034,236 L1008,236 L1008,239 L962,239 L962,236 L955,236 L955,239 L955,242 L955,289 L1055,289 L1055,239 L1034,239 Z" id="Fill-47" fill="#283378" sketch:type="MSShapeGroup" mask="url(#mask-4)"></path>
                    <path d="M1090,273 L1090,266 L1080,266 L1080,273 L1075,273 L1075,266 L1048,266 L1048,277 L1038,277 L1038,328 L1051,328 L1109,328 L1109,273 L1090,273 Z" id="Fill-48" fill="#146078" sketch:type="MSShapeGroup" mask="url(#mask-4)"></path>
                    <path d="M995,242 L988,242 L988,236 L995,236 L995,242 Z" id="Fill-49" fill="#283378" sketch:type="MSShapeGroup" mask="url(#mask-4)"></path>
                    <path d="M1200,300 L1185,300 L1185,260 L1200,260 L1200,300 Z" id="Fill-50" fill="#2F7B92" sketch:type="MSShapeGroup" mask="url(#mask-4)"></path>
                    <path d="M1176,279 L1168,279 L1168,268 L1176,268 L1176,279 Z" id="Fill-51" fill="#146078" sketch:type="MSShapeGroup" mask="url(#mask-4)"></path>
                    <path d="M1159,282 L1147,282 L1147,269 L1159,269 L1159,282 Z" id="Fill-52" fill="#146078" sketch:type="MSShapeGroup" mask="url(#mask-4)"></path>
                    <path d="M1134,285 L1143,285 L1143,268 L1134,268 L1134,285 Z" id="Fill-53" fill="#146078" sketch:type="MSShapeGroup" mask="url(#mask-4)"></path>
                    <path d="M1120,287 L1129,287 L1129,265 L1120,265 L1120,287 Z" id="Fill-54" fill="#146078" sketch:type="MSShapeGroup" mask="url(#mask-4)"></path>
                    <path d="M1124,287 L1113,287 L1113,268 L1124,268 L1124,287 Z" id="Fill-55" fill="#2F7B92" sketch:type="MSShapeGroup" mask="url(#mask-4)"></path>
                    <path d="M381,259 L381,286 L389,286 L389,259 L385.5,252 L381,259 Z" id="Fill-56" fill="#283378" sketch:type="MSShapeGroup" mask="url(#mask-4)"></path>
                    <path d="M395,313 L389,313 L389,255 L395,255 L395,313 Z" id="Fill-57" fill="#146078" sketch:type="MSShapeGroup" mask="url(#mask-4)"></path>
                    <path d="M387,317 L377,317 L377,299 L387,299 L387,317 Z" id="Fill-58" fill="#146078" sketch:type="MSShapeGroup" mask="url(#mask-4)"></path>
                    <path d="M358,317 L367,317 L367,299 L358,299 L358,317 Z" id="Fill-59" fill="#283378" sketch:type="MSShapeGroup" mask="url(#mask-4)"></path>
                    <path d="M336,277 L342,277 L342,315 L336,315 L336,277 Z" id="Fill-60" fill="#283378" sketch:type="MSShapeGroup" mask="url(#mask-4)"></path>
                    <path d="M132,243 L132,234 L125,234 L125,230 L119,230 L119,226 L115,226 L115,225 L103,225 L103,226 L100,226 L100,230 L93,230 L93,234 L87,234 L87,241 L84,241 L84,251 L81,251 L81,257 L84,257 L85,257 L87,257 L127,257 L127,261 L134,261 L134,243 L132,243 Z" id="Fill-61" fill="#283378" sketch:type="MSShapeGroup" mask="url(#mask-4)"></path>
                    <path d="M68,290 L0,290 L0,252 L68,252 L68,290 Z" id="Fill-62" fill="#146078" sketch:type="MSShapeGroup" mask="url(#mask-4)"></path>
                    <path d="M61,290 L131,290 L131,257 L61,257 L61,290 Z" id="Fill-63" fill="#2F7B92" sketch:type="MSShapeGroup" mask="url(#mask-4)"></path>
                    <path d="M604,300 L658,300 L658,281 L604,281 L604,300 Z" id="Fill-64" fill="#283378" sketch:type="MSShapeGroup" mask="url(#mask-4)"></path>
                    <path d="M142,328 L162,328 L162,269 L142,269 L142,328 Z" id="Fill-65" fill="#2F7B92" sketch:type="MSShapeGroup" mask="url(#mask-4)"></path>
                    <path d="M642,298 L642,294 L620,294 L620,298 L615,298 L615,326 L655,326 L655,298 L642,298 Z" id="Fill-66" fill="#2F7B92" sketch:type="MSShapeGroup" mask="url(#mask-4)"></path>
                    <path d="M594,301 L551,301 L551,277 L594,277 L594,301 Z" id="Fill-67" fill="#283378" sketch:type="MSShapeGroup" mask="url(#mask-4)"></path>
                    <path d="M565,297 L565,301 L557,301 L557,295 L545,295 L545,299 L535,299 L535,295 L522,295 L522,299 L512,299 L512,294 L499,294 L499,297 L486,297 L486,294 L469,294 L469,313 L486,313 L499,313 L512,313 L522,313 L535,313 L545,313 L557,313 L565,313 L574,313 L574,297 L565,297 Z" id="Fill-68" fill="#2F7B92" sketch:type="MSShapeGroup" mask="url(#mask-4)"></path>
                    <path d="M515,313 L458,313 L458,280 L515,280 L515,313 Z" id="Fill-69" fill="#146078" sketch:type="MSShapeGroup" mask="url(#mask-4)"></path>
                    <path d="M974,350 C974,350 932.667,345.333 912,341 C891.333,336.667 876,337.667 871.333,335.333 C866.667,333 859.667,325.667 852.333,324 C845,322.333 833,320.667 827,318 C821,315.333 813,307.667 804.333,309.333 C795.667,311 758.667,308 750.667,307.667 C742.667,307.333 731.333,309.667 726.667,311 C722,312.333 717.333,312 711.667,312.667 C706,313.333 704.667,309.667 694.667,315.667 C684.667,321.667 681,317.333 674.333,317.333 C667.667,317.333 665.667,322 665.667,322 C665.667,322 663.333,320.667 659,321 C654.667,321.333 652,320 646.333,320 C640.667,320 638.667,319 631.667,320.333 C624.667,321.667 625.333,327.634 622,328.817 C618.667,330 618,322.333 612.333,322.333 C606.667,322.333 601.667,325.667 601.667,325.667 C601.667,325.667 597,319.333 591.667,320 C586.333,320.667 586.667,324.333 586.667,324.333 C586.667,324.333 588.667,323.333 580,323.333 C571.333,323.333 572,327 572,327 C572,327 564.667,312.333 552,312.333 C539.333,312.333 532,313 526,313.333 C520,313.667 509,309.667 498.667,309.667 C488.333,309.667 476.333,312.667 470.667,312.667 C465,312.667 452.333,306.602 443.333,307.634 C434.333,308.667 422,303.667 409.333,304.667 C396.667,305.667 381,311 373.667,311 C366.333,311 357.333,312.333 347,312.333 C336.667,312.333 336.333,310.667 323.333,310.667 C310.333,310.667 309.333,304.067 290.333,304.534 C271.333,305 249.333,304.687 242,304.51 C234.667,304.333 222.667,300.333 214.333,300.333 C206,300.333 180,306.333 169.333,306.667 C158.667,307 153.667,304.333 145.667,304.333 C137.667,304.333 137.667,302.667 124.667,305.667 C111.667,308.667 104.333,306.667 92.667,306.667 C81,306.667 88,309.333 75.333,312.667 C62.667,316 56,316.333 49.667,315.667 C43.333,315 36.667,315 31.333,315 C26,315 25.333,315 20.333,313.333 C15.333,311.667 10,304.333 0,304 L0,347 L974,350 Z" id="Fill-70" fill="#414453" sketch:type="MSShapeGroup" mask="url(#mask-4)"></path>
                    <path d="M170,261 L134,261 L134,246 L170,246 L170,261 Z" id="Fill-71" fill="#2F7B92" sketch:type="MSShapeGroup" mask="url(#mask-4)"></path>
                    <path d="M978,340 L926,340 L926,298 L978,298 L978,340 Z" id="Fill-72" fill="#283378" sketch:type="MSShapeGroup" mask="url(#mask-4)"></path>
                    <path d="M911,328 L926,328 L926,340 L911,340 L911,328 Z" id="Fill-73" fill="#283378" sketch:type="MSShapeGroup" mask="url(#mask-4)"></path>
                    <path d="M1030,340 L1059,340 L1059,328 L1030,328 L1030,340 Z" id="Fill-74" fill="#283378" sketch:type="MSShapeGroup" mask="url(#mask-4)"></path>
                    <path d="M1011,340 L991,340 L991,298 L1011,298 L1011,340 Z" id="Fill-75" fill="#146078" sketch:type="MSShapeGroup" mask="url(#mask-4)"></path>
                    <path d="M1018,316 L1018,325 L1008,325 L1008,316 L996,316 L996,331 L988,331 L988,319 L978,319 L978,340 L988,340 L996,340 L1008,340 L1018,340 L1033,340 L1033,316 L1018,316 Z" id="Fill-76" fill="#2F7B92" sketch:type="MSShapeGroup" mask="url(#mask-4)"></path>
                    <path d="M252,408.9316 L252,402.9676 C257.599,403.4886 264.194,403.8416 270.333,402.8336 C270.333,402.8336 258.167,351.1666 246.833,338.6666 L243.167,401.9996 C243.167,401.9996 245.499,402.3876 249,402.7666 L249,408.8226 C238.05,408.1836 228.167,406.9996 228.167,406.9996 L230.167,418.9996 C241.5,419.1666 270,413.9996 270,413.9996 L270,408.8336 C264.848,409.3856 258.823,409.2816 252,408.9316" id="Fill-77" fill="#DBEBF3" sketch:type="MSShapeGroup" mask="url(#mask-4)"></path>
                    <path d="M892,392.2758 L892,388.2918 C888,388.6398 884.101,388.8758 880.001,388.2018 C880.001,388.2018 888.085,353.6898 895.656,345.3398 L898.001,387.6458 C898.001,387.6458 896,387.9048 894,388.1578 L894,392.2028 C901,391.7758 907.999,390.9858 907.999,390.9858 L906.636,399.0018 C899.065,399.1128 880,398.6618 880,398.6618 L880,392.2098 C883,392.5788 887,392.5098 892,392.2758" id="Fill-78" fill="#DBEBF3" sketch:type="MSShapeGroup" mask="url(#mask-4)"></path>
                    <path d="M962,412.2758 L962,408.2918 C958,408.6398 954.101,408.8758 950.001,408.2018 C950.001,408.2018 958.085,373.6898 965.656,365.3398 L968.001,407.6458 C968.001,407.6458 966,407.9048 964,408.1578 L964,412.2028 C971,411.7758 977.999,410.9858 977.999,410.9858 L976.636,419.0018 C969.065,419.1128 950,418.6618 950,418.6618 L950,412.2098 C953,412.5788 957,412.5098 962,412.2758" id="Fill-79" fill="#DBEBF3" sketch:type="MSShapeGroup" mask="url(#mask-4)"></path>
                </g>
            </g>
        </g>
    </g>
</svg>