<svg id="Layer_1" xmlns="http://www.w3.org/2000/svg" viewBox="0 0 424 196"><style>.st0{fill:#ED1C24;} .st1{fill:#2E3192;} .st2{fill:#FFFFFF;}</style><path class="st0" d="M6.2 3.8h95.4v73H6.2z"/><path class="st1" d="M53.9 68.1c-15.3.1-28.2-12.6-27.8-28.5.3-15 12.9-27.6 28.6-27.1 15.1.4 27.4 13 27 28.5-.4 14.9-12.5 27.1-27.8 27.1zM80 40.3c0-14.1-11.4-25.9-25.8-26.2-14.6-.2-26.2 11.6-26.5 25.7-.3 14.6 11.4 26.4 25.7 26.7 15 .2 26.7-11.9 26.6-26.2z"/><path class="st2" d="M80 40.3c0 14.3-11.7 26.4-26.6 26.1-14.3-.2-26-12.1-25.7-26.7.3-14 11.9-25.8 26.6-25.5 14.4.2 25.8 12 25.7 26.1zM70 22.6c-10.7-10-28.5-7.6-36.1 4.6h1.5c2.2-.1 4.4-.1 6.7-.2.2 0 .5.2.5.3 0 .5-.1 1.1-.2 1.6h-2.3c-.9 0-.9.1-.7.9 2.6 7.6 5.2 15.3 7.8 22.9.2.7.5 1.4.8 2.2.1-.2.1-.3.2-.4 1.7-5 3.3-10.1 5-15.1.1-.2.1-.6 0-.8-.9-2.6-1.9-5.3-2.9-7.9-.8-2-.2-1.8-2.6-1.8-1.4 0-1.3 0-1.3-1.4 0-.4.1-.5.6-.5 1.8.1 3.6.2 5.4.2 2.3 0 4.5-.1 6.8-.1 1.3 0 1.3 0 1.3 1.3 0 .4-.2.5-.6.5h-1.8c-.9 0-1 .1-.7 1 2.8 8.1 5.5 16.2 8.3 24.4 0 .1.1.2.2.5 1.2-3.8 2.4-7.5 3.6-11.2.7-2.4.9-4.8.3-7.3-.4-1.8-1.4-3.3-2.3-4.8-.8-1.2-1.4-2.5-1.6-4-.3-2.2.8-4 2.8-4.6.3-.1.8-.2 1.3-.3zM54.3 42.1c-2.5 7.1-4.9 14.1-7.4 21.2 5.1 1.5 10 1.4 15-.4-2.5-7-5.1-13.9-7.6-20.8zM32.1 30.4c-5.5 11.8 0 26.3 11.5 31.4-3.8-10.4-7.6-20.9-11.5-31.4zm33.3 30.8c4.9-2.5 10.3-8.1 11.9-16.1 1.1-5.2-.2-13.8-2.4-16.1 0 3.6-.7 7-1.9 10.4-2.1 6-4.2 11.9-6.3 17.9-.4 1.3-.9 2.6-1.3 3.9z"/><path class="st1" d="M70 22.6c-.5.1-.9.1-1.4.3-2 .6-3 2.4-2.8 4.6.2 1.5.8 2.8 1.6 4 .9 1.5 1.9 3.1 2.3 4.8.6 2.5.4 4.9-.3 7.3-1.1 3.7-2.3 7.4-3.6 11.2-.1-.2-.2-.4-.2-.5-2.8-8.1-5.5-16.2-8.3-24.4-.3-.8-.2-1 .7-1h1.8c.4 0 .6-.1.6-.5 0-1.3 0-1.3-1.3-1.3-2.3 0-4.5.1-6.8.1-1.8 0-3.6-.1-5.4-.2-.4 0-.5.1-.6.5 0 1.4 0 1.4 1.3 1.4 2.4 0 1.9-.2 2.6 1.8 1 2.6 1.9 5.3 2.9 7.9.1.2.1.6 0 .8-1.7 5-3.3 10.1-5 15.1 0 .1-.1.2-.2.4-.3-.8-.5-1.5-.8-2.2-2.6-7.6-5.2-15.3-7.8-22.9-.2-.8-.2-.8.7-.8h2.3c.1-.5.2-1.1.2-1.6 0-.1-.3-.3-.5-.3-2.2 0-4.4.1-6.7.2h-1.5C41.5 15 59.2 12.6 70 22.6z"/><path class="st1" d="M54.3 42.1c2.6 7 5.1 13.9 7.6 20.8-5 1.7-9.9 1.8-15 .4 2.5-7.1 4.9-14.1 7.4-21.2zM32.1 30.4c3.8 10.5 7.7 20.9 11.5 31.4-11.5-5-17-19.6-11.5-31.4zm33.3 30.8c.5-1.3.9-2.6 1.4-3.8 2.1-6 4.2-11.9 6.3-17.9 1.2-3.4 1.9-6.8 1.9-10.4 2.2 2.3 3.5 10.9 2.4 16.1-1.7 7.9-7.2 13.6-12 16zM112 3.8h95.4v73H112z"/><path class="st2" d="M128.2 16.2h63v48.2h-63z"/><path class="st0" d="M144 28.3h31.5v24.1H144z"/><path class="st1" d="M217.8 3.8h95.4v73h-95.4z"/><path class="st2" d="M244 28.3h42.9v24.1H244z"/><path class="st0" d="M400.4 40.3L419 76.8h-95.4v-73H419zm-8.7 126.4h5.8c2.5.1 5 0 7.5.3 4.1.6 7.2 4.1 7.5 8.1.2 2.6.1 5.2-.1 7.7-.5 4.6-4.5 8.2-9.2 8.3-3 .1-6 .1-9.1 0-5.5-.1-9.8-4.4-9.8-9.9 0-7.4 0-14.7.1-22.1 0-1.8.3-3.7 1-5.4 1.5-3.7 4.5-5.7 8.5-5.7 3.2-.1 6.5-.1 9.7 0 5.6.2 10.2 5.7 9.3 11.2-.1.3-.6.8-.9.8-1.6.1-3.2.1-4.9.1-.8 0-1.2-.3-1.2-1.2 0-.6-.1-1.2-.2-1.8-.3-1.1-1-1.9-2.2-1.9-3-.1-6-.2-9.1-.1-1.8 0-2.7 1-2.7 2.9-.1 3 0 5.7 0 8.7zm7 7.1c-1.6 0-3.1-.1-4.7 0-1.4.1-2.2.8-2.3 2.2-.2 1.9-.2 3.8-.1 5.6.1 1.5.9 2.4 2.3 2.4 3.1.1 6.3.1 9.4.1 1.2 0 2.1-.9 2.1-2.1.1-1.9.2-3.8.1-5.8-.1-1.7-.9-2.4-2.6-2.5-1.4 0-2.8.1-4.2.1zm-41.4-3.8v11.6c0 5.3-4.3 9.5-9.6 9.6h-9c-4.9-.1-8.9-3.8-9.5-8.6-.1-.7-.1-1.4-.1-2.1 0-7.4-.1-14.8 0-22.2 0-5.6 4.2-9.9 9.8-10 3-.1 5.9-.1 8.9 0 5.5.2 9.5 4.3 9.5 9.8V170zm-7-.2v-11.1c0-2.4-1-3.4-3.3-3.4h-7.7c-2 0-3.1 1-3.1 3V181c0 2 1 3 3.1 3h7.8c2.2 0 3.1-1 3.1-3.2.1-3.6.1-7.3.1-11zM302.6 184h1.8c4.6 0 9.2.1 13.9.1 1.6 0 1.7.2 1.7 1.7 0 1.2-.1 2.4-.1 3.7.1 1.3-.5 1.7-1.7 1.6-5.4-.1-10.7-.2-16.1-.2h-8.2c-1.6 0-1.6-.1-1.8-1.6-.5-3.6.7-6.1 3.5-8.5 5.5-4.7 10.7-9.9 16-14.8 1.1-1 1.8-2.2 1.7-3.8-.1-1.3 0-2.7 0-4.1 0-1.8-1-2.9-2.8-2.9-2.8-.1-5.6-.1-8.4-.1-1.7 0-2.8 1.1-2.9 2.8-.1 1-.1 1.9-.1 2.9 0 .9-.4 1.4-1.3 1.4h-4.3c-.9 0-1.4-.4-1.3-1.4.1-1.6 0-3.1.2-4.7.6-4.4 4.4-7.8 8.8-7.8 3.3-.1 6.6 0 9.9.1 5 .2 8.9 4.3 9 9.3v4.8c.1 3.3-1.1 6.1-3.6 8.3-4.4 4-8.6 8.1-12.9 12.2l-1 1zm71.1-14.2v19.7c0 1-.3 1.4-1.3 1.4-1.5-.1-3-.1-4.4-.1-.9 0-1.1-.4-1.1-1.2 0-12.5 0-25 .1-37.5v-2c-.1-1.7 0-1.7 1.6-1.7 1.1 0 2.2.1 3.3.1 2 0 1.9.1 1.9 2-.2 6.5-.2 12.9-.1 19.3-.1 0 0 0 0 0z"/><path class="st1" d="M11.7 190.4v-6.8h4.7v-28.5h-4.7v-6.8h21.6c6.7 0 13 .9 13 11.3v1.1c0 3.6-1.8 6.3-4.8 7.5v.1c4 1.2 6.5 4.4 6.5 8.7v1.8c-.2 10.6-7.6 11.6-13.9 11.6H11.7zm13.8-25h7.8c1.9 0 3.8-.7 3.8-4.4v-1c0-3.5-1.8-4.3-3.8-4.3h-7.8v9.7zm8.6 17.5c2.1 0 4.6-.8 4.7-4.8V177c0-4.4-2.8-4.7-5-4.7h-8.4V183h8.7zm60.4-8.8c0 4.9-.2 13.4-10.5 15.9-3 .7-5.6.9-8 .9-2.5 0-5-.2-8-.9-10.2-2.5-10.5-11-10.5-15.9v-9.7c0-4.9.2-13.3 10.5-15.9 3-.7 5.5-.9 8-.9 2.4 0 5 .2 8 .9 10.2 2.5 10.5 11.1 10.5 15.9v9.7zm-27.9.1c0 8.1 3.6 9.4 9.4 9.4 6.6 0 9.4-2.1 9.4-9.4v-9.5c0-7.3-2.8-9.4-9.4-9.4-5.8 0-9.4 1.2-9.4 9.4v9.5zm58.2-18.9c-1.5-.3-2.9-.3-3.6-.3-4.3 0-7 .9-7 4.4 0 2.2 1.7 3.2 4.7 4.7l7.3 3.7c5 2.6 7.9 5.8 7.9 12 0 9.1-6.2 11.1-16.5 11.1-2.1 0-8.2-.7-13.3-2v-11.1h8v5.3c2.4.5 4.4.7 5.3.7 4.6 0 7.4-1.1 7.4-4 0-2.7-1.1-3.7-3.1-4.7l-7.7-3.9c-6-3.1-9.1-5.6-9.1-11.9 0-9.2 5.7-11.5 16.1-11.5 2 0 7.1.4 11.6 1.7v10.6h-8v-4.8zm45.3 28.3v6.8h-18.5v-6.8h4.7v-27.9h-6v6.5h-8v-13.9h37.2v13.9h-8v-6.5h-6.1v27.9h4.7zm55.2-9.5c0 4.9-.2 13.4-10.5 15.9-3 .7-5.6.9-8 .9-2.5 0-5-.2-8-.9-10.2-2.5-10.5-11-10.5-15.9v-9.7c0-4.9.2-13.3 10.5-15.9 3-.7 5.5-.9 8-.9 2.4 0 5 .2 8 .9 10.2 2.5 10.5 11.1 10.5 15.9v9.7zm-27.9.1c0 8.1 3.6 9.4 9.4 9.4 6.6 0 9.4-2.1 9.4-9.4v-9.5c0-7.3-2.8-9.4-9.4-9.4-5.8 0-9.4 1.2-9.4 9.4v9.5zm79.7-25.9v6.8h-4.7v35.3h-9.3l-14-25.8h-.2v19h4.9v6.8H235v-6.8h4.7v-28.5H235v-6.8h14.6l13.5 25.5h.2v-18.7h-4.9v-6.8h18.7z"/><path class="st0" d="M18.6 97.7l4.6 20.5h.3l6.1-25.9h9l6.1 25.9h.3l4.6-20.5h-4.3v-7h17.8v7h-4L49.7 134h-9.2l-6.2-27H34l-6.2 27h-9.3L8.9 97.7H5v-7h17.9v7h-4.3zm91.5 19.5c0 5-.2 13.8-10.8 16.4-3 .7-5.7.9-8.2.9-2.6 0-5.2-.2-8.2-.9-10.5-2.6-10.8-11.3-10.8-16.3v-9.9c0-5 .2-13.7 10.8-16.3 3-.7 5.7-.9 8.2-.9 2.5 0 5.2.2 8.2.9 10.5 2.6 10.8 11.4 10.8 16.4v9.7zm-28.6.1c0 8.3 3.7 9.6 9.7 9.6 6.8 0 9.7-2.2 9.7-9.7v-9.8c0-7.5-2.9-9.7-9.7-9.7-6 0-9.7 1.3-9.7 9.6v10zm58.6 9.7v7h-18.8v-7h4.9V97.7h-4.9v-7h21.4c9.1 0 14.8 1.6 14.8 13.9 0 9.4-3.5 12.2-9.7 13.2l-.4.1v.2l6.9 8.9h4.6v7h-10.5l-10.5-15.8h-2.3v8.8h4.5zm2.6-16.2c3.3 0 5.4-.5 5.4-6.1s-2.1-6.3-5.4-6.3h-7.1v12.5h7.1zm26.2 23.2v-7h4.9V97.7h-4.9v-7H189c13.1.2 19.5 4.8 19.5 17.5v8.2c0 13.1-7.1 17.5-19.5 17.5h-20.1zm20-7.6c7.5 0 10.2-2.8 10.2-9.9v-8.2c0-7.6-3.4-9.9-10.2-9.9H183v28h5.9zM243 97.9c-1.5-.2-3-.2-4.4-.2-6.3 0-9.2 2.8-9.4 10.1v9.9c-.1 6.9 3 9.3 9.7 9.3 3.9 0 9.3-.2 12.6-.9v7.4c-3.7.7-7.8 1-12.6 1-2.4 0-4.9-.2-7.3-.7-11.3-2.9-11.7-11.3-11.7-16.2v-10.5c0-5 .4-13.4 11.7-16.2 2.4-.5 4.6-.7 6.9-.7 4.8 0 8.9.4 12.6 1.1v12.3H243v-5.7zm43.6 36.1v-7h4.3l-1.8-5.2h-14l-1.8 5.2h4.3v7h-17.5v-7h3.9l13-36.3h10.1l13 36.3h3.9v7h-17.4zm-.1-19.7l-4.4-14.2h-.1l-4.4 14.2h8.9zm76.1-16.6l2.3 29.3h4v7h-17.6v-7h4.3l-1.4-22.6h-.2l-9.5 24.8H337l-9.2-22.8h-.3L326 127h4.3v7h-17.8v-7h4l2.3-29.3h-4.9v-7h16.9l9.9 26.2 10.5-26.2h16.3v7h-4.9zm35.7 29.3v7h-19.1v-7h4.9V97.7h-4.9v-7h22c9 0 14.8 1.6 14.8 13.9s-5.8 13.9-14.8 13.9h-7.8v8.5h4.9zm2.9-16.1c3.3 0 5.4-.7 5.4-6.3s-2.1-6.3-5.4-6.3h-7.8v12.6h7.8z"/></svg>